<svg id="visual" viewBox="0 0 960 300" width="960" height="300" xmlns="http://www.w3.org/2000/svg" xmlns:xlink="http://www.w3.org/1999/xlink" version="1.1"><rect x="0" y="0" width="960" height="300" fill="#000000"></rect><path d="M0 88L22.8 90.8C45.7 93.7 91.3 99.3 137 97.8C182.7 96.3 228.3 87.7 274 89.3C319.7 91 365.3 103 411.2 102.7C457 102.3 503 89.7 548.8 85.3C594.7 81 640.3 85 686 88.5C731.7 92 777.3 95 823 95.8C868.7 96.7 914.3 95.3 937.2 94.7L960 94L960 0L937.2 0C914.3 0 868.7 0 823 0C777.3 0 731.7 0 686 0C640.3 0 594.7 0 548.8 0C503 0 457 0 411.2 0C365.3 0 319.7 0 274 0C228.3 0 182.7 0 137 0C91.3 0 45.7 0 22.8 0L0 0Z" fill="#fa7268"></path><path d="M0 66L22.8 69.7C45.7 73.3 91.3 80.7 137 79.5C182.7 78.3 228.3 68.7 274 64.7C319.7 60.7 365.3 62.3 411.2 68.5C457 74.7 503 85.3 548.8 85.8C594.7 86.3 640.3 76.7 686 73.5C731.7 70.3 777.3 73.7 823 73.7C868.7 73.7 914.3 70.3 937.2 68.7L960 67L960 0L937.2 0C914.3 0 868.7 0 823 0C777.3 0 731.7 0 686 0C640.3 0 594.7 0 548.8 0C503 0 457 0 411.2 0C365.3 0 319.7 0 274 0C228.3 0 182.7 0 137 0C91.3 0 45.7 0 22.8 0L0 0Z" fill="#fd6053"></path><path d="M0 56L22.8 57.5C45.7 59 91.3 62 137 60.7C182.7 59.3 228.3 53.7 274 50.5C319.7 47.3 365.3 46.7 411.2 50C457 53.3 503 60.7 548.8 63C594.7 65.3 640.3 62.7 686 59.8C731.7 57 777.3 54 823 56.8C868.7 59.7 914.3 68.3 937.2 72.7L960 77L960 0L937.2 0C914.3 0 868.7 0 823 0C777.3 0 731.7 0 686 0C640.3 0 594.7 0 548.8 0C503 0 457 0 411.2 0C365.3 0 319.7 0 274 0C228.3 0 182.7 0 137 0C91.3 0 45.7 0 22.8 0L0 0Z" fill="#ff4c3d"></path><path d="M0 37L22.8 38.3C45.7 39.7 91.3 42.3 137 41.5C182.7 40.7 228.3 36.3 274 36.2C319.7 36 365.3 40 411.2 42C457 44 503 44 548.8 44.3C594.7 44.7 640.3 45.3 686 46.5C731.7 47.7 777.3 49.3 823 46.7C868.7 44 914.3 37 937.2 33.5L960 30L960 0L937.2 0C914.3 0 868.7 0 823 0C777.3 0 731.7 0 686 0C640.3 0 594.7 0 548.8 0C503 0 457 0 411.2 0C365.3 0 319.7 0 274 0C228.3 0 182.7 0 137 0C91.3 0 45.7 0 22.8 0L0 0Z" fill="#ff3325"></path><path d="M0 17L22.8 18.8C45.7 20.7 91.3 24.3 137 25.7C182.7 27 228.3 26 274 26.3C319.7 26.7 365.3 28.3 411.2 26.8C457 25.3 503 20.7 548.8 19.2C594.7 17.7 640.3 19.3 686 20C731.7 20.7 777.3 20.3 823 22.5C868.7 24.7 914.3 29.3 937.2 31.7L960 34L960 0L937.2 0C914.3 0 868.7 0 823 0C777.3 0 731.7 0 686 0C640.3 0 594.7 0 548.8 0C503 0 457 0 411.2 0C365.3 0 319.7 0 274 0C228.3 0 182.7 0 137 0C91.3 0 45.7 0 22.8 0L0 0Z" fill="#ff0000"></path></svg>